<svg xmlns="http://www.w3.org/2000/svg" viewBox="0 0 24 24" fill="#8DD6F9">
  <path d="M22.1987 18.498l-9.7699 5.5022v-4.2855l6.0872-3.3338 3.6827 2.117zm.6683-1.0481l.1506-.0867V6.4576l-3.5682 2.054v7.396zm-10.0654 5.647v-4.22l6.072-3.3733 3.6382 2.117zm-8.5625-4.22l9.7699 5.5022v-4.2855L7.8298 15.98zm-.1506-1.048V6.4576l3.5682 2.054v7.396zm8.7131-8.4057l-9.7699 5.5022 3.6827 2.117 6.0872-3.3338zm10.0654 0l-3.5682 2.054-3.6382-2.117 6.072-3.3733zm-10.0654.6683l-6.072 3.3733-3.6382-2.117 6.072-3.3733zm0 .6683l6.072 3.3733v4.22l-6.072-3.3733zm10.0654-.6683l-6.072 3.3733v4.22l6.072-3.3733z"/>
</svg>
